<svg width="37" height="37" viewBox="0 0 37 37" fill="none" xmlns="http://www.w3.org/2000/svg">
<circle cx="18.3619" cy="18.3829" r="18.2032" fill="#0ABCB2"/>
<path fill-rule="evenodd" clip-rule="evenodd" d="M25.5921 23.8788C25.1291 25.2858 23.3151 25.9878 22.0191 25.8708C20.2491 25.7108 18.3231 24.7718 16.8611 23.7378C14.7121 22.2178 12.6991 19.8668 11.5261 17.3718C10.6971 15.6088 10.5111 13.4408 11.7441 11.8338C12.2001 11.2398 12.6941 10.9228 13.4341 10.8858C14.4621 10.8358 14.6061 11.4238 14.9591 12.3398C15.2221 13.0248 15.5731 13.7238 15.7691 14.4338C16.1361 15.7588 14.8531 15.8138 14.6911 16.8968C14.5911 17.5798 15.4181 18.4958 15.7921 18.9828C16.513 19.9312 17.3959 20.7448 18.4001 21.3858C18.9701 21.7448 19.8881 22.3918 20.5401 22.0348C21.5441 21.4848 21.4501 19.7918 22.8531 20.3648C23.5801 20.6608 24.2841 21.0878 24.9781 21.4618C26.0511 22.0388 26.0011 22.6368 25.5921 23.8788C25.8981 22.9508 25.2861 24.8068 25.5921 23.8788Z" fill="white"/>
</svg>
