<svg width="25" height="25" viewBox="0 0 25 25" fill="none" xmlns="http://www.w3.org/2000/svg">
<path d="M12.8916 11.2069C12.4816 11.2069 12.1416 10.8669 12.1416 10.457V7.12695C12.1416 6.71695 12.4816 6.37695 12.8916 6.37695C13.3016 6.37695 13.6416 6.71695 13.6416 7.12695V10.457C13.6416 10.8769 13.3016 11.2069 12.8916 11.2069Z" fill="#101E33"/>
<path d="M12.9115 21.0372C10.3315 21.0372 7.76147 20.6272 5.31147 19.8072C4.40147 19.5072 3.71147 18.8572 3.41147 18.0372C3.11147 17.2172 3.21147 16.2772 3.70147 15.4572L4.97147 13.3372C5.25147 12.8672 5.50147 11.9872 5.50147 11.4372V9.33725C5.50147 5.24725 8.82147 1.92725 12.9115 1.92725C17.0015 1.92725 20.3215 5.24725 20.3215 9.33725V11.4372C20.3215 11.9772 20.5715 12.8672 20.8515 13.3372L22.1215 15.4572C22.5915 16.2372 22.6715 17.1672 22.3615 18.0172C22.0515 18.8672 21.3715 19.5172 20.5115 19.8072C18.0615 20.6372 15.4915 21.0372 12.9115 21.0372ZM12.9115 3.43725C9.65147 3.43725 7.00147 6.08725 7.00147 9.34725V11.4472C7.00147 12.2572 6.68147 13.4272 6.26147 14.1172L4.99147 16.2472C4.73147 16.6772 4.67147 17.1372 4.82147 17.5372C4.97147 17.9372 5.31147 18.2372 5.79147 18.3972C10.3915 19.9272 15.4515 19.9272 20.0515 18.3972C20.4815 18.2572 20.8115 17.9372 20.9615 17.5172C21.1215 17.0972 21.0715 16.6372 20.8415 16.2472L19.5715 14.1272C19.1515 13.4372 18.8315 12.2672 18.8315 11.4572V9.35725C18.8215 6.08725 16.1715 3.43725 12.9115 3.43725Z" fill="#101E33"/>
<path d="M12.8915 23.5868C11.8215 23.5868 10.7715 23.1468 10.0115 22.3868C9.25152 21.6268 8.81152 20.5768 8.81152 19.5068H10.3115C10.3115 20.1868 10.5915 20.8468 11.0715 21.3268C11.5515 21.8068 12.2115 22.0868 12.8915 22.0868C14.3115 22.0868 15.4715 20.9268 15.4715 19.5068H16.9715C16.9715 21.7568 15.1415 23.5868 12.8915 23.5868Z" fill="#101E33"/>
</svg>
