<svg width="31" height="31" viewBox="0 0 31 31" fill="none" xmlns="http://www.w3.org/2000/svg">
<g clip-path="url(#clip0_101_157)">
<path d="M24.0946 28.8151C22.0696 28.8151 20.1571 27.7651 19.0821 26.0401C18.5071 25.1526 18.1821 24.0901 18.1571 23.0026C18.1196 21.1776 18.8947 19.4776 20.2822 18.3276C21.3197 17.4651 22.6197 16.9776 23.9572 16.9401C25.5822 16.9276 27.0446 17.4901 28.1946 18.5901C29.3446 19.6901 29.9946 21.1651 30.0196 22.7526C30.0446 23.8401 29.7696 24.9026 29.2196 25.8401C28.9196 26.3651 28.5321 26.8526 28.0696 27.2651C27.0446 28.2276 25.6696 28.7901 24.2071 28.8151C24.1821 28.8151 24.1446 28.8151 24.0946 28.8151ZM24.0946 18.8151C24.0696 18.8151 24.0321 18.8151 24.0071 18.8151C23.0821 18.8401 22.2071 19.1651 21.4821 19.7651C20.5321 20.5526 20.0071 21.7151 20.0321 22.9651C20.0446 23.7026 20.2696 24.4276 20.6571 25.0401C21.4196 26.2651 22.7446 27.0151 24.1696 26.9401C25.1571 26.9151 26.0947 26.5401 26.8072 25.8776C27.1322 25.5901 27.3946 25.2651 27.5946 24.9151C27.9696 24.2651 28.1571 23.5401 28.1446 22.8026C28.1196 21.7151 27.6821 20.7026 26.8946 19.9526C26.1446 19.2151 25.1446 18.8151 24.0946 18.8151Z" fill="#292D32"/>
<path d="M23.4044 25.0651C23.1669 25.0651 22.9419 24.9776 22.7544 24.8026L21.4919 23.6026C21.1169 23.2401 21.1044 22.6526 21.4669 22.2776C21.8294 21.9026 22.4169 21.8901 22.7919 22.2526L23.4044 22.8401L25.3669 20.9401C25.7419 20.5776 26.3294 20.5901 26.6919 20.9651C27.0544 21.3401 27.0419 21.9277 26.6669 22.2902L24.0544 24.8151C23.8669 24.9776 23.6294 25.0651 23.4044 25.0651Z" fill="#292D32"/>
<path d="M15.3425 17.0026C15.18 17.0026 15.0175 16.9651 14.8675 16.8776L3.82997 10.4901C3.37997 10.2276 3.22994 9.65252 3.49244 9.20252C3.75494 8.75252 4.32997 8.6025 4.76747 8.865L15.3299 14.9776L25.83 8.90254C26.28 8.64004 26.855 8.80256 27.105 9.24006C27.3675 9.69006 27.205 10.265 26.7675 10.5275L15.805 16.8776C15.6675 16.9526 15.505 17.0026 15.3425 17.0026Z" fill="#292D32"/>
<path d="M15.3433 28.3274C14.8308 28.3274 14.4058 27.9024 14.4058 27.3899V16.0524C14.4058 15.5399 14.8308 15.1149 15.3433 15.1149C15.8558 15.1149 16.2808 15.5399 16.2808 16.0524V27.3899C16.2808 27.9024 15.8558 28.3274 15.3433 28.3274Z" fill="#292D32"/>
<path d="M15.3419 28.8151C14.2419 28.8151 13.1419 28.5776 12.2919 28.0901L5.61688 24.3901C3.80438 23.3901 2.37939 20.9776 2.37939 18.9026V11.8276C2.37939 9.75256 3.80438 7.35261 5.61688 6.34011L12.2919 2.64009C13.9919 1.67759 16.6669 1.67759 18.3794 2.64009L25.0544 6.34011C26.8669 7.34011 28.2919 9.75256 28.2919 11.8276V18.9026C28.2919 19.0276 28.2919 19.1276 28.2669 19.2526C28.2044 19.5776 27.9669 19.8526 27.6544 19.9526C27.3419 20.0651 26.9919 19.9901 26.7294 19.7776C25.2919 18.5276 23.0669 18.4776 21.5544 19.6901C20.5919 20.4526 20.0294 21.6151 20.0294 22.8526C20.0294 23.5901 20.2294 24.3151 20.6169 24.9401C20.7169 25.1151 20.8169 25.2526 20.9294 25.3901C21.1169 25.6026 21.1919 25.8901 21.1419 26.1651C21.0919 26.4401 20.9169 26.6776 20.6669 26.8151L18.3794 28.0776C17.5294 28.5776 16.4419 28.8151 15.3419 28.8151ZM15.3419 3.81509C14.5669 3.81509 13.7794 3.9776 13.2169 4.2901L6.54187 7.99013C5.32937 8.65263 4.27938 10.4526 4.27938 11.8276V18.9026C4.27938 20.2776 5.34187 22.0776 6.54187 22.7401L13.2169 26.4401C14.3544 27.0776 16.3419 27.0776 17.4794 26.4401L18.8794 25.6651C18.4169 24.8276 18.1669 23.8526 18.1669 22.8526C18.1669 21.0276 18.9794 19.3401 20.3919 18.2151C22.0919 16.8526 24.5169 16.5651 26.4294 17.3776V11.8026C26.4294 10.4276 25.3669 8.6276 24.1669 7.9651L17.4919 4.26508C16.9044 3.97758 16.1169 3.81509 15.3419 3.81509Z" fill="#292D32"/>
</g>
<defs>
<clipPath id="clip0_101_157">
<rect width="30" height="30" fill="white" transform="translate(0.343262 0.377686)"/>
</clipPath>
</defs>
</svg>
